<?xml version="1.0" encoding="utf-8"?>
<!-- Generator: Adobe Illustrator 16.0.0, SVG Export Plug-In . SVG Version: 6.00 Build 0)  -->
<!DOCTYPE svg PUBLIC "-//W3C//DTD SVG 1.1//EN" "http://www.w3.org/Graphics/SVG/1.1/DTD/svg11.dtd">
<svg version="1.1" id="Layer_1" xmlns="http://www.w3.org/2000/svg" xmlns:xlink="http://www.w3.org/1999/xlink" x="0px" y="0px"
	 width="58.764px" height="15.248px" viewBox="0 0 58.764 15.248" enable-background="new 0 0 58.764 15.248" xml:space="preserve">
<rect x="17.855" y="10.548" fill="#333333" width="23.375" height="0.344"/>
<path d="M10.804,14.767h-0.166v-1.28h-0.452v-0.147h1.07v0.147h-0.452V14.767z"/>
<path d="M12.179,14.767v-0.692c0-0.087-0.02-0.152-0.06-0.195s-0.102-0.064-0.187-0.064c-0.113,0-0.195,0.031-0.247,0.092
	s-0.078,0.162-0.078,0.301v0.56h-0.162v-1.52h0.162v0.46c0,0.055-0.002,0.101-0.008,0.138h0.01c0.032-0.051,0.077-0.092,0.136-0.122
	s0.126-0.044,0.202-0.044c0.131,0,0.229,0.031,0.294,0.093s0.098,0.161,0.098,0.296v0.698H12.179z"/>
<path d="M13.332,14.767L13.3,14.615h-0.008c-0.053,0.067-0.106,0.112-0.16,0.136s-0.119,0.036-0.199,0.036
	c-0.106,0-0.189-0.027-0.25-0.082s-0.09-0.132-0.09-0.233c0-0.216,0.173-0.33,0.519-0.34l0.182-0.006v-0.066
	c0-0.084-0.018-0.146-0.054-0.186s-0.094-0.06-0.173-0.06c-0.089,0-0.19,0.027-0.303,0.082l-0.05-0.124
	c0.053-0.029,0.11-0.051,0.173-0.067s0.126-0.024,0.189-0.024c0.127,0,0.222,0.028,0.284,0.085s0.092,0.147,0.092,0.272v0.73H13.332
	z M12.966,14.653c0.101,0,0.18-0.028,0.238-0.083s0.086-0.133,0.086-0.232v-0.097l-0.162,0.007c-0.129,0.004-0.222,0.024-0.279,0.06
	s-0.085,0.091-0.085,0.166c0,0.059,0.018,0.103,0.053,0.134S12.902,14.653,12.966,14.653z"/>
<path d="M14.132,14.653c0.029,0,0.056-0.002,0.083-0.006s0.048-0.009,0.063-0.013v0.124c-0.018,0.008-0.043,0.016-0.078,0.021
	s-0.065,0.008-0.092,0.008c-0.207,0-0.311-0.109-0.311-0.327v-0.637h-0.153v-0.078l0.153-0.067l0.068-0.229h0.094v0.248h0.311v0.126
	H13.96v0.63c0,0.064,0.015,0.114,0.046,0.148S14.079,14.653,14.132,14.653z"/>
<path d="M15.494,13.823h-0.272v0.944H15.06v-0.944h-0.191V13.75l0.191-0.059v-0.06c0-0.263,0.114-0.395,0.345-0.395
	c0.057,0,0.123,0.011,0.199,0.034l-0.042,0.13c-0.062-0.02-0.116-0.03-0.16-0.03c-0.062,0-0.106,0.021-0.136,0.061
	s-0.044,0.106-0.044,0.196v0.069h0.272V13.823z M15.676,13.407c0-0.037,0.01-0.064,0.027-0.082s0.041-0.026,0.068-0.026
	c0.025,0,0.049,0.009,0.067,0.026s0.028,0.044,0.028,0.081s-0.01,0.063-0.028,0.082s-0.042,0.027-0.067,0.027
	c-0.027,0-0.051-0.009-0.068-0.027S15.676,13.443,15.676,13.407z M15.852,14.767h-0.162v-1.07h0.162V14.767z"/>
<path d="M16.928,14.767v-0.692c0-0.087-0.02-0.152-0.06-0.195s-0.103-0.064-0.187-0.064c-0.111,0-0.193,0.03-0.246,0.091
	s-0.078,0.161-0.078,0.3v0.562h-0.162v-1.07h0.132l0.026,0.146h0.008c0.033-0.053,0.08-0.094,0.14-0.123s0.126-0.043,0.2-0.043
	c0.129,0,0.227,0.031,0.291,0.093s0.098,0.162,0.098,0.298v0.698H16.928z"/>
<path d="M17.875,14.787c-0.158,0-0.283-0.048-0.375-0.145c-0.091-0.096-0.137-0.23-0.137-0.401c0-0.172,0.043-0.31,0.127-0.411
	c0.086-0.102,0.199-0.152,0.343-0.152c0.134,0,0.24,0.044,0.318,0.132s0.117,0.205,0.117,0.349v0.103h-0.737
	c0.004,0.125,0.035,0.221,0.096,0.286c0.06,0.065,0.145,0.098,0.254,0.098c0.115,0,0.229-0.024,0.342-0.072v0.145
	c-0.057,0.025-0.111,0.042-0.162,0.053C18.009,14.781,17.947,14.787,17.875,14.787z M17.831,13.813
	c-0.086,0-0.154,0.028-0.206,0.084c-0.051,0.056-0.08,0.133-0.09,0.232h0.56c0-0.102-0.022-0.181-0.068-0.235
	S17.916,13.813,17.831,13.813z"/>
<path d="M19.227,14.767h-0.162v-1.52h0.162V14.767z"/>
<path d="M19.557,13.407c0-0.037,0.01-0.064,0.027-0.082s0.041-0.026,0.068-0.026c0.025,0,0.049,0.009,0.067,0.026
	s0.028,0.044,0.028,0.081s-0.01,0.063-0.028,0.082s-0.042,0.027-0.067,0.027c-0.027,0-0.051-0.009-0.068-0.027
	S19.557,13.443,19.557,13.407z M19.732,14.767H19.57v-1.07h0.162V14.767z"/>
<path d="M20.809,14.767v-0.692c0-0.087-0.02-0.152-0.06-0.195s-0.103-0.064-0.187-0.064c-0.111,0-0.193,0.03-0.246,0.091
	s-0.078,0.161-0.078,0.3v0.562h-0.162v-1.07h0.132l0.026,0.146h0.008c0.033-0.053,0.08-0.094,0.14-0.123s0.126-0.043,0.2-0.043
	c0.129,0,0.227,0.031,0.291,0.093c0.065,0.062,0.098,0.162,0.098,0.298v0.698H20.809z"/>
<path d="M21.756,14.787c-0.158,0-0.283-0.048-0.374-0.145c-0.092-0.096-0.138-0.23-0.138-0.401c0-0.172,0.042-0.31,0.128-0.411
	c0.084-0.102,0.198-0.152,0.342-0.152c0.134,0,0.24,0.044,0.318,0.132s0.117,0.205,0.117,0.349v0.103h-0.737
	c0.003,0.125,0.035,0.221,0.095,0.286c0.061,0.065,0.146,0.098,0.255,0.098c0.115,0,0.229-0.024,0.342-0.072v0.145
	c-0.058,0.025-0.111,0.042-0.163,0.053C21.89,14.781,21.828,14.787,21.756,14.787z M21.712,13.813c-0.086,0-0.154,0.028-0.205,0.084
	c-0.052,0.056-0.082,0.133-0.091,0.232h0.56c0-0.102-0.022-0.181-0.068-0.235S21.797,13.813,21.712,13.813z"/>
<path d="M23.443,13.679c0.141,0,0.25,0.048,0.328,0.144c0.077,0.096,0.116,0.232,0.116,0.408s-0.039,0.312-0.118,0.41
	c-0.078,0.097-0.187,0.146-0.326,0.146c-0.069,0-0.133-0.013-0.191-0.039c-0.057-0.026-0.105-0.065-0.145-0.119h-0.012l-0.034,0.138
	h-0.116v-1.52h0.162v0.369c0,0.083-0.003,0.157-0.008,0.223h0.008C23.183,13.732,23.295,13.679,23.443,13.679z M23.42,13.815
	c-0.11,0-0.19,0.032-0.239,0.095s-0.073,0.17-0.073,0.321s0.025,0.258,0.075,0.323s0.131,0.097,0.241,0.097
	c0.1,0,0.174-0.036,0.223-0.109s0.073-0.177,0.073-0.313c0-0.139-0.024-0.243-0.073-0.312S23.522,13.815,23.42,13.815z"/>
<path d="M24.623,14.787c-0.158,0-0.283-0.048-0.374-0.145c-0.092-0.096-0.138-0.23-0.138-0.401c0-0.172,0.042-0.31,0.128-0.411
	c0.084-0.102,0.198-0.152,0.342-0.152c0.134,0,0.24,0.044,0.318,0.132s0.117,0.205,0.117,0.349v0.103h-0.737
	c0.003,0.125,0.035,0.221,0.095,0.286c0.061,0.065,0.146,0.098,0.255,0.098c0.115,0,0.229-0.024,0.342-0.072v0.145
	c-0.058,0.025-0.111,0.042-0.163,0.053C24.757,14.781,24.695,14.787,24.623,14.787z M24.579,13.813
	c-0.086,0-0.154,0.028-0.205,0.084c-0.052,0.056-0.082,0.133-0.091,0.232h0.56c0-0.102-0.022-0.181-0.068-0.235
	S24.664,13.813,24.579,13.813z"/>
<path d="M25.639,14.653c0.028,0,0.057-0.002,0.083-0.006s0.048-0.009,0.063-0.013v0.124c-0.018,0.008-0.043,0.016-0.078,0.021
	c-0.033,0.005-0.064,0.008-0.092,0.008c-0.207,0-0.311-0.109-0.311-0.327v-0.637h-0.153v-0.078l0.153-0.067l0.068-0.229h0.094v0.248
	h0.311v0.126h-0.311v0.63c0,0.064,0.016,0.114,0.046,0.148S25.585,14.653,25.639,14.653z"/>
<path d="M26.873,14.767l-0.196-0.628c-0.013-0.039-0.035-0.125-0.069-0.262H26.6c-0.026,0.114-0.049,0.202-0.068,0.264l-0.202,0.626
	h-0.188l-0.292-1.07h0.17c0.069,0.269,0.122,0.474,0.157,0.614c0.037,0.141,0.058,0.235,0.062,0.284h0.008
	c0.007-0.037,0.019-0.085,0.035-0.144c0.016-0.059,0.029-0.105,0.041-0.14l0.196-0.614h0.176l0.191,0.614
	c0.036,0.112,0.062,0.206,0.074,0.282h0.008c0.003-0.023,0.01-0.06,0.021-0.108c0.012-0.049,0.08-0.312,0.204-0.788h0.168
	l-0.296,1.07H26.873z"/>
<path d="M28.007,14.787c-0.158,0-0.283-0.048-0.374-0.145c-0.092-0.096-0.138-0.23-0.138-0.401c0-0.172,0.042-0.31,0.128-0.411
	c0.084-0.102,0.198-0.152,0.342-0.152c0.134,0,0.24,0.044,0.318,0.132s0.117,0.205,0.117,0.349v0.103h-0.737
	c0.003,0.125,0.035,0.221,0.095,0.286c0.061,0.065,0.146,0.098,0.255,0.098c0.115,0,0.229-0.024,0.342-0.072v0.145
	c-0.058,0.025-0.111,0.042-0.163,0.053C28.141,14.781,28.079,14.787,28.007,14.787z M27.963,13.813
	c-0.086,0-0.154,0.028-0.205,0.084c-0.052,0.056-0.082,0.133-0.091,0.232h0.56c0-0.102-0.022-0.181-0.068-0.235
	S28.048,13.813,27.963,13.813z"/>
<path d="M29.129,14.787c-0.158,0-0.283-0.048-0.374-0.145c-0.092-0.096-0.138-0.23-0.138-0.401c0-0.172,0.042-0.31,0.128-0.411
	c0.084-0.102,0.198-0.152,0.342-0.152c0.134,0,0.24,0.044,0.318,0.132s0.117,0.205,0.117,0.349v0.103h-0.737
	c0.003,0.125,0.035,0.221,0.095,0.286c0.061,0.065,0.146,0.098,0.255,0.098c0.115,0,0.229-0.024,0.342-0.072v0.145
	c-0.058,0.025-0.111,0.042-0.163,0.053C29.263,14.781,29.201,14.787,29.129,14.787z M29.085,13.813
	c-0.086,0-0.154,0.028-0.205,0.084c-0.052,0.056-0.082,0.133-0.091,0.232h0.56c0-0.102-0.022-0.181-0.068-0.235
	S29.17,13.813,29.085,13.813z"/>
<path d="M30.531,14.767v-0.692c0-0.087-0.02-0.152-0.06-0.195s-0.102-0.064-0.187-0.064c-0.112,0-0.194,0.03-0.246,0.091
	s-0.078,0.161-0.078,0.3v0.562h-0.162v-1.07h0.132l0.026,0.146h0.008c0.033-0.053,0.08-0.094,0.14-0.123s0.127-0.043,0.2-0.043
	c0.129,0,0.226,0.031,0.291,0.093s0.098,0.162,0.098,0.298v0.698H30.531z"/>
<path d="M32.274,14.624h-0.009c-0.075,0.109-0.187,0.163-0.336,0.163c-0.14,0-0.249-0.048-0.327-0.144
	c-0.077-0.096-0.116-0.232-0.116-0.408s0.039-0.313,0.117-0.411s0.187-0.146,0.326-0.146c0.146,0,0.257,0.053,0.334,0.158h0.013
	l-0.007-0.077l-0.004-0.075v-0.436h0.162v1.52h-0.132L32.274,14.624z M31.95,14.651c0.11,0,0.191-0.03,0.24-0.09
	c0.051-0.06,0.075-0.157,0.075-0.292v-0.034c0-0.152-0.025-0.26-0.075-0.325c-0.051-0.065-0.132-0.097-0.242-0.097
	c-0.095,0-0.168,0.037-0.219,0.111c-0.05,0.074-0.075,0.178-0.075,0.313c0,0.137,0.025,0.24,0.075,0.31S31.854,14.651,31.95,14.651z
	"/>
<path d="M33.26,13.677c0.048,0,0.09,0.004,0.128,0.012l-0.022,0.15c-0.044-0.01-0.083-0.015-0.117-0.015
	c-0.087,0-0.16,0.035-0.223,0.105c-0.061,0.07-0.092,0.158-0.092,0.263v0.574h-0.162v-1.07h0.134l0.019,0.198h0.008
	c0.04-0.07,0.088-0.124,0.144-0.161S33.192,13.677,33.26,13.677z"/>
<path d="M34.04,14.787c-0.158,0-0.283-0.048-0.374-0.145c-0.092-0.096-0.138-0.23-0.138-0.401c0-0.172,0.042-0.31,0.128-0.411
	c0.084-0.102,0.198-0.152,0.342-0.152c0.134,0,0.24,0.044,0.318,0.132s0.117,0.205,0.117,0.349v0.103h-0.737
	c0.003,0.125,0.035,0.221,0.095,0.286c0.061,0.065,0.146,0.098,0.255,0.098c0.115,0,0.229-0.024,0.342-0.072v0.145
	c-0.058,0.025-0.111,0.042-0.163,0.053C34.174,14.781,34.112,14.787,34.04,14.787z M33.996,13.813c-0.086,0-0.154,0.028-0.205,0.084
	c-0.052,0.056-0.082,0.133-0.091,0.232h0.56c0-0.102-0.022-0.181-0.068-0.235S34.081,13.813,33.996,13.813z"/>
<path d="M35.368,14.767l-0.032-0.152h-0.008c-0.054,0.067-0.106,0.112-0.159,0.136c-0.054,0.024-0.12,0.036-0.199,0.036
	c-0.106,0-0.189-0.027-0.25-0.082c-0.06-0.055-0.09-0.132-0.09-0.233c0-0.216,0.173-0.33,0.519-0.34l0.182-0.006v-0.066
	c0-0.084-0.019-0.146-0.054-0.186c-0.037-0.04-0.095-0.06-0.174-0.06c-0.089,0-0.19,0.027-0.303,0.082l-0.05-0.124
	c0.053-0.029,0.11-0.051,0.173-0.067c0.063-0.016,0.126-0.024,0.189-0.024c0.128,0,0.223,0.028,0.283,0.085
	c0.062,0.057,0.093,0.147,0.093,0.272v0.73H35.368z M35.002,14.653c0.101,0,0.181-0.028,0.237-0.083
	c0.059-0.055,0.087-0.133,0.087-0.232v-0.097l-0.162,0.007c-0.129,0.004-0.222,0.024-0.278,0.06
	c-0.058,0.036-0.086,0.091-0.086,0.166c0,0.059,0.018,0.103,0.053,0.134C34.889,14.638,34.938,14.653,35.002,14.653z"/>
<path d="M37.187,14.767v-0.696c0-0.085-0.019-0.149-0.055-0.192s-0.093-0.064-0.17-0.064c-0.101,0-0.176,0.029-0.224,0.087
	s-0.072,0.147-0.072,0.268v0.598h-0.162v-0.696c0-0.085-0.019-0.149-0.055-0.192s-0.094-0.064-0.171-0.064
	c-0.102,0-0.176,0.03-0.224,0.091c-0.047,0.061-0.07,0.161-0.07,0.299v0.562h-0.162v-1.07h0.132l0.026,0.146h0.008
	c0.03-0.052,0.074-0.093,0.129-0.122c0.057-0.029,0.118-0.044,0.188-0.044c0.167,0,0.276,0.061,0.328,0.182h0.008
	c0.032-0.056,0.078-0.1,0.139-0.133s0.13-0.049,0.207-0.049c0.121,0,0.212,0.031,0.271,0.093c0.061,0.062,0.091,0.162,0.091,0.298
	v0.698H37.187z"/>
<path d="M38.373,14.475c0,0.1-0.037,0.176-0.111,0.23s-0.179,0.081-0.312,0.081c-0.142,0-0.253-0.022-0.332-0.067v-0.15
	c0.052,0.026,0.106,0.046,0.165,0.062c0.06,0.015,0.116,0.022,0.171,0.022c0.085,0,0.149-0.014,0.195-0.041s0.068-0.068,0.068-0.124
	c0-0.042-0.019-0.077-0.054-0.107c-0.037-0.03-0.107-0.064-0.212-0.105c-0.1-0.037-0.171-0.069-0.212-0.097
	c-0.043-0.028-0.074-0.059-0.094-0.094c-0.021-0.035-0.031-0.077-0.031-0.126c0-0.087,0.035-0.156,0.106-0.207
	s0.168-0.076,0.292-0.076c0.115,0,0.228,0.023,0.338,0.07l-0.058,0.132c-0.107-0.044-0.205-0.066-0.292-0.066
	c-0.077,0-0.135,0.012-0.174,0.036s-0.059,0.057-0.059,0.1c0,0.029,0.008,0.053,0.021,0.073c0.016,0.02,0.039,0.04,0.071,0.058
	s0.095,0.044,0.188,0.079c0.127,0.046,0.213,0.093,0.257,0.14C38.351,14.345,38.373,14.404,38.373,14.475z"/>
<path d="M39.814,14.767l-0.032-0.152h-0.008c-0.054,0.067-0.106,0.112-0.159,0.136c-0.054,0.024-0.12,0.036-0.199,0.036
	c-0.106,0-0.189-0.027-0.25-0.082c-0.06-0.055-0.09-0.132-0.09-0.233c0-0.216,0.173-0.33,0.519-0.34l0.182-0.006v-0.066
	c0-0.084-0.019-0.146-0.054-0.186c-0.037-0.04-0.095-0.06-0.174-0.06c-0.089,0-0.19,0.027-0.303,0.082l-0.05-0.124
	c0.053-0.029,0.11-0.051,0.173-0.067c0.063-0.016,0.126-0.024,0.189-0.024c0.128,0,0.223,0.028,0.283,0.085
	c0.062,0.057,0.093,0.147,0.093,0.272v0.73H39.814z M39.448,14.653c0.101,0,0.181-0.028,0.237-0.083
	c0.059-0.055,0.087-0.133,0.087-0.232v-0.097l-0.162,0.007c-0.129,0.004-0.222,0.024-0.278,0.06
	c-0.058,0.036-0.086,0.091-0.086,0.166c0,0.059,0.018,0.103,0.053,0.134C39.335,14.638,39.385,14.653,39.448,14.653z"/>
<path d="M41.001,14.767v-0.692c0-0.087-0.02-0.152-0.06-0.195s-0.102-0.064-0.187-0.064c-0.112,0-0.194,0.03-0.246,0.091
	s-0.078,0.161-0.078,0.3v0.562h-0.162v-1.07H40.4l0.026,0.146h0.008c0.033-0.053,0.08-0.094,0.14-0.123s0.127-0.043,0.2-0.043
	c0.129,0,0.226,0.031,0.291,0.093s0.098,0.162,0.098,0.298v0.698H41.001z"/>
<path d="M42.225,14.624h-0.009c-0.075,0.109-0.187,0.163-0.336,0.163c-0.14,0-0.249-0.048-0.327-0.144
	c-0.077-0.096-0.116-0.232-0.116-0.408s0.039-0.313,0.117-0.411s0.187-0.146,0.326-0.146c0.146,0,0.257,0.053,0.334,0.158h0.013
	l-0.007-0.077l-0.004-0.075v-0.436h0.162v1.52h-0.132L42.225,14.624z M41.9,14.651c0.11,0,0.191-0.03,0.24-0.09
	c0.051-0.06,0.075-0.157,0.075-0.292v-0.034c0-0.152-0.025-0.26-0.075-0.325c-0.051-0.065-0.132-0.097-0.242-0.097
	c-0.095,0-0.168,0.037-0.219,0.111c-0.05,0.074-0.075,0.178-0.075,0.313c0,0.137,0.025,0.24,0.075,0.31S41.804,14.651,41.9,14.651z"
	/>
<path d="M43.729,13.677c0.048,0,0.09,0.004,0.128,0.012l-0.022,0.15c-0.044-0.01-0.083-0.015-0.117-0.015
	c-0.087,0-0.16,0.035-0.223,0.105c-0.061,0.07-0.092,0.158-0.092,0.263v0.574h-0.162v-1.07h0.134l0.019,0.198h0.008
	c0.04-0.07,0.088-0.124,0.144-0.161S43.662,13.677,43.729,13.677z"/>
<path d="M44.51,14.787c-0.158,0-0.283-0.048-0.374-0.145c-0.092-0.096-0.138-0.23-0.138-0.401c0-0.172,0.042-0.31,0.128-0.411
	c0.084-0.102,0.198-0.152,0.342-0.152c0.134,0,0.24,0.044,0.318,0.132s0.117,0.205,0.117,0.349v0.103h-0.737
	c0.003,0.125,0.035,0.221,0.095,0.286c0.061,0.065,0.146,0.098,0.255,0.098c0.115,0,0.229-0.024,0.342-0.072v0.145
	c-0.058,0.025-0.111,0.042-0.163,0.053C44.644,14.781,44.582,14.787,44.51,14.787z M44.466,13.813c-0.086,0-0.154,0.028-0.205,0.084
	c-0.052,0.056-0.082,0.133-0.091,0.232h0.56c0-0.102-0.022-0.181-0.068-0.235S44.551,13.813,44.466,13.813z"/>
<path d="M45.838,14.767l-0.032-0.152h-0.008c-0.054,0.067-0.106,0.112-0.159,0.136c-0.054,0.024-0.12,0.036-0.199,0.036
	c-0.106,0-0.189-0.027-0.25-0.082c-0.06-0.055-0.09-0.132-0.09-0.233c0-0.216,0.173-0.33,0.519-0.34l0.182-0.006v-0.066
	c0-0.084-0.019-0.146-0.054-0.186c-0.037-0.04-0.095-0.06-0.174-0.06c-0.089,0-0.19,0.027-0.303,0.082l-0.05-0.124
	c0.053-0.029,0.11-0.051,0.173-0.067c0.063-0.016,0.126-0.024,0.189-0.024c0.128,0,0.223,0.028,0.283,0.085
	c0.062,0.057,0.093,0.147,0.093,0.272v0.73H45.838z M45.472,14.653c0.101,0,0.181-0.028,0.237-0.083
	c0.059-0.055,0.087-0.133,0.087-0.232v-0.097l-0.162,0.007c-0.129,0.004-0.222,0.024-0.278,0.06
	c-0.058,0.036-0.086,0.091-0.086,0.166c0,0.059,0.018,0.103,0.053,0.134C45.358,14.638,45.408,14.653,45.472,14.653z"/>
<path d="M46.454,14.767h-0.162v-1.52h0.162V14.767z"/>
<path d="M46.784,13.407c0-0.037,0.009-0.064,0.027-0.082s0.041-0.026,0.068-0.026c0.026,0,0.049,0.009,0.067,0.026
	s0.028,0.044,0.028,0.081s-0.01,0.063-0.028,0.082s-0.041,0.027-0.067,0.027c-0.027,0-0.05-0.009-0.068-0.027
	S46.784,13.443,46.784,13.407z M46.96,14.767h-0.162v-1.07h0.162V14.767z"/>
<path d="M47.649,14.653c0.028,0,0.057-0.002,0.083-0.006s0.048-0.009,0.063-0.013v0.124c-0.018,0.008-0.043,0.016-0.078,0.021
	c-0.033,0.005-0.064,0.008-0.092,0.008c-0.207,0-0.311-0.109-0.311-0.327v-0.637h-0.153v-0.078l0.153-0.067l0.068-0.229h0.094v0.248
	h0.311v0.126h-0.311v0.63c0,0.064,0.016,0.114,0.046,0.148S47.596,14.653,47.649,14.653z"/>
<path d="M47.84,13.697h0.174l0.234,0.61c0.052,0.139,0.083,0.24,0.096,0.302h0.008c0.009-0.033,0.026-0.09,0.053-0.17
	c0.027-0.081,0.116-0.328,0.266-0.742h0.174l-0.46,1.219c-0.046,0.121-0.099,0.206-0.159,0.256c-0.062,0.05-0.136,0.076-0.225,0.076
	c-0.05,0-0.099-0.005-0.146-0.017v-0.13c0.036,0.008,0.076,0.012,0.12,0.012c0.111,0,0.19-0.062,0.238-0.188l0.06-0.152
	L47.84,13.697z"/>
<path d="M48.994,14.664c0-0.043,0.01-0.077,0.029-0.099c0.021-0.022,0.049-0.034,0.086-0.034c0.038,0,0.067,0.011,0.088,0.034
	c0.021,0.022,0.032,0.056,0.032,0.099c0,0.042-0.011,0.075-0.032,0.098s-0.051,0.034-0.088,0.034c-0.033,0-0.061-0.01-0.082-0.031
	C49.005,14.744,48.994,14.71,48.994,14.664z"/>
<g>
	<path fill="#333333" d="M4.469,6.081H3.538V3.527H0.927v2.554H0V0.415h0.927v2.317h2.611V0.415h0.931V6.081z"/>
	<path fill="#333333" d="M9.666,3.93c0,0.7-0.18,1.247-0.539,1.64s-0.859,0.589-1.5,0.589c-0.4,0-0.754-0.09-1.062-0.271
		c-0.308-0.181-0.544-0.44-0.709-0.778C5.69,4.77,5.608,4.377,5.608,3.93c0-0.694,0.178-1.237,0.534-1.628
		c0.356-0.39,0.859-0.585,1.508-0.585c0.62,0,1.111,0.2,1.473,0.599C9.484,2.715,9.666,3.253,9.666,3.93z M6.546,3.93
		c0,0.99,0.365,1.484,1.097,1.484c0.724,0,1.085-0.494,1.085-1.484c0-0.979-0.364-1.469-1.093-1.469
		c-0.383,0-0.659,0.127-0.831,0.38S6.546,3.457,6.546,3.93z"/>
	<path fill="#333333" d="M13.394,6.081l-0.183-0.597h-0.03c-0.207,0.261-0.415,0.438-0.624,0.532
		c-0.21,0.095-0.479,0.142-0.807,0.142c-0.421,0-0.75-0.113-0.986-0.341s-0.354-0.549-0.354-0.965c0-0.442,0.164-0.775,0.492-1
		s0.828-0.348,1.5-0.368l0.74-0.023V3.232c0-0.273-0.064-0.479-0.191-0.614c-0.128-0.136-0.327-0.203-0.596-0.203
		c-0.22,0-0.43,0.032-0.632,0.097c-0.201,0.064-0.395,0.141-0.581,0.229l-0.294-0.651c0.232-0.121,0.486-0.214,0.763-0.277
		c0.276-0.062,0.538-0.095,0.783-0.095c0.545,0,0.957,0.119,1.234,0.356c0.277,0.238,0.417,0.611,0.417,1.12v2.888H13.394z
		 M12.335,1.271c-0.178-0.135-0.403-0.329-0.676-0.583c-0.272-0.255-0.471-0.457-0.595-0.606V0h1.058
		c0.099,0.181,0.232,0.389,0.401,0.624s0.311,0.419,0.425,0.551v0.097H12.335z M12.037,5.461c0.331,0,0.596-0.093,0.796-0.277
		s0.301-0.443,0.301-0.777V4.034l-0.551,0.023c-0.429,0.016-0.74,0.087-0.936,0.215s-0.293,0.324-0.293,0.588
		c0,0.19,0.058,0.339,0.171,0.443S11.81,5.461,12.037,5.461z"/>
	<path fill="#333333" d="M19.087,6.081h-0.915V3.445c0-0.33-0.066-0.577-0.199-0.74c-0.133-0.162-0.344-0.244-0.634-0.244
		c-0.385,0-0.666,0.114-0.845,0.341c-0.178,0.228-0.268,0.608-0.268,1.144v2.136h-0.91V1.795h0.713l0.128,0.562h0.046
		c0.13-0.204,0.313-0.361,0.551-0.473s0.501-0.167,0.791-0.167c1.028,0,1.542,0.523,1.542,1.569V6.081z"/>
	<path fill="#333333" d="M23.974,1.795v0.5L23.241,2.43c0.067,0.091,0.123,0.202,0.167,0.334s0.065,0.271,0.065,0.418
		c0,0.442-0.152,0.79-0.457,1.043s-0.725,0.38-1.26,0.38c-0.137,0-0.261-0.011-0.372-0.031C21.188,4.694,21.091,4.837,21.091,5
		c0,0.098,0.046,0.172,0.138,0.221c0.091,0.049,0.26,0.073,0.505,0.073h0.748c0.474,0,0.832,0.101,1.078,0.303
		c0.245,0.201,0.368,0.492,0.368,0.872c0,0.485-0.2,0.86-0.601,1.123c-0.401,0.264-0.979,0.396-1.736,0.396
		c-0.584,0-1.03-0.104-1.337-0.31c-0.308-0.207-0.462-0.502-0.462-0.884c0-0.264,0.084-0.485,0.25-0.665
		c0.167-0.179,0.4-0.304,0.7-0.374c-0.122-0.051-0.222-0.135-0.301-0.25c-0.079-0.114-0.118-0.235-0.118-0.362
		c0-0.16,0.045-0.296,0.136-0.406c0.09-0.111,0.225-0.222,0.403-0.33c-0.223-0.095-0.403-0.251-0.541-0.467
		c-0.139-0.216-0.207-0.468-0.207-0.758c0-0.465,0.146-0.825,0.439-1.081s0.711-0.384,1.254-0.384c0.121,0,0.248,0.009,0.382,0.025
		c0.133,0.017,0.233,0.034,0.3,0.053H23.974z M20.606,6.747c0,0.196,0.088,0.348,0.265,0.454c0.178,0.105,0.426,0.158,0.746,0.158
		c0.496,0,0.866-0.07,1.108-0.213c0.243-0.142,0.364-0.331,0.364-0.565c0-0.187-0.066-0.318-0.199-0.397s-0.381-0.118-0.742-0.118
		h-0.689c-0.262,0-0.469,0.062-0.622,0.184C20.683,6.372,20.606,6.538,20.606,6.747z M20.997,3.182c0,0.27,0.069,0.476,0.208,0.62
		C21.343,3.946,21.541,4.02,21.8,4.02c0.527,0,0.791-0.282,0.791-0.846c0-0.278-0.065-0.494-0.196-0.645
		c-0.131-0.151-0.329-0.228-0.595-0.228c-0.264,0-0.463,0.075-0.599,0.226C21.065,2.677,20.997,2.896,20.997,3.182z"/>
	<path fill="#333333" d="M26.365,5.422c0.222,0,0.444-0.035,0.666-0.104v0.686c-0.101,0.044-0.23,0.081-0.39,0.11
		c-0.158,0.03-0.323,0.045-0.494,0.045c-0.862,0-1.294-0.454-1.294-1.364v-2.31h-0.585V2.081l0.628-0.333l0.31-0.907h0.562v0.954
		h1.221v0.689h-1.221v2.294c0,0.22,0.055,0.382,0.164,0.486C26.043,5.37,26.187,5.422,26.365,5.422z"/>
	<path fill="#333333" d="M31.689,3.93c0,0.7-0.18,1.247-0.539,1.64s-0.859,0.589-1.5,0.589c-0.4,0-0.754-0.09-1.062-0.271
		c-0.308-0.181-0.544-0.44-0.709-0.778c-0.166-0.339-0.248-0.731-0.248-1.179c0-0.694,0.178-1.237,0.534-1.628
		c0.357-0.39,0.859-0.585,1.508-0.585c0.62,0,1.111,0.2,1.473,0.599C31.509,2.715,31.689,3.253,31.689,3.93z M28.569,3.93
		c0,0.99,0.365,1.484,1.097,1.484c0.724,0,1.085-0.494,1.085-1.484c0-0.979-0.364-1.469-1.093-1.469
		c-0.382,0-0.659,0.127-0.831,0.38S28.569,3.457,28.569,3.93z"/>
	<path fill="#333333" d="M36.355,1.795v0.5L35.623,2.43c0.067,0.091,0.123,0.202,0.167,0.334s0.065,0.271,0.065,0.418
		c0,0.442-0.152,0.79-0.457,1.043s-0.725,0.38-1.26,0.38c-0.137,0-0.261-0.011-0.372-0.031C33.57,4.694,33.473,4.837,33.473,5
		c0,0.098,0.046,0.172,0.138,0.221c0.091,0.049,0.26,0.073,0.505,0.073h0.748c0.474,0,0.832,0.101,1.078,0.303
		c0.245,0.201,0.368,0.492,0.368,0.872c0,0.485-0.2,0.86-0.601,1.123c-0.401,0.264-0.979,0.396-1.736,0.396
		c-0.584,0-1.03-0.104-1.337-0.31c-0.308-0.207-0.462-0.502-0.462-0.884c0-0.264,0.084-0.485,0.25-0.665
		c0.167-0.179,0.4-0.304,0.7-0.374c-0.122-0.051-0.222-0.135-0.301-0.25c-0.079-0.114-0.118-0.235-0.118-0.362
		c0-0.16,0.045-0.296,0.136-0.406c0.09-0.111,0.225-0.222,0.403-0.33c-0.223-0.095-0.403-0.251-0.541-0.467
		c-0.139-0.216-0.207-0.468-0.207-0.758c0-0.465,0.146-0.825,0.439-1.081s0.711-0.384,1.254-0.384c0.121,0,0.248,0.009,0.382,0.025
		c0.133,0.017,0.233,0.034,0.3,0.053H36.355z M32.988,6.747c0,0.196,0.088,0.348,0.265,0.454c0.178,0.105,0.426,0.158,0.746,0.158
		c0.496,0,0.866-0.07,1.108-0.213c0.243-0.142,0.364-0.331,0.364-0.565c0-0.187-0.066-0.318-0.199-0.397s-0.381-0.118-0.742-0.118
		h-0.689c-0.262,0-0.469,0.062-0.622,0.184C33.064,6.372,32.988,6.538,32.988,6.747z M33.379,3.182c0,0.27,0.069,0.476,0.208,0.62
		c0.138,0.145,0.336,0.218,0.595,0.218c0.527,0,0.791-0.282,0.791-0.846c0-0.278-0.065-0.494-0.196-0.645
		c-0.131-0.151-0.329-0.228-0.595-0.228c-0.264,0-0.463,0.075-0.599,0.226C33.447,2.677,33.379,2.896,33.379,3.182z"/>
	<path fill="#333333" d="M39.324,1.717c0.184,0,0.335,0.014,0.453,0.039l-0.089,0.849c-0.129-0.031-0.264-0.047-0.403-0.047
		c-0.364,0-0.659,0.119-0.885,0.357c-0.227,0.237-0.34,0.546-0.34,0.926v2.24h-0.91V1.795h0.713l0.12,0.755h0.047
		c0.142-0.255,0.327-0.458,0.556-0.608C38.814,1.792,39.061,1.717,39.324,1.717z"/>
	<path fill="#333333" d="M43.254,6.081l-0.183-0.597h-0.03c-0.207,0.261-0.415,0.438-0.624,0.532
		c-0.21,0.095-0.479,0.142-0.807,0.142c-0.421,0-0.75-0.113-0.986-0.341S40.27,5.269,40.27,4.853c0-0.442,0.164-0.775,0.492-1
		s0.828-0.348,1.5-0.368l0.74-0.023V3.232c0-0.273-0.064-0.479-0.191-0.614c-0.128-0.136-0.327-0.203-0.596-0.203
		c-0.22,0-0.43,0.032-0.632,0.097c-0.201,0.064-0.395,0.141-0.581,0.229l-0.294-0.651c0.232-0.121,0.486-0.214,0.763-0.277
		c0.276-0.062,0.538-0.095,0.783-0.095c0.545,0,0.957,0.119,1.234,0.356c0.277,0.238,0.417,0.611,0.417,1.12v2.888H43.254z
		 M41.897,5.461c0.331,0,0.596-0.093,0.796-0.277s0.301-0.443,0.301-0.777V4.034l-0.551,0.023c-0.429,0.016-0.74,0.087-0.936,0.215
		s-0.293,0.324-0.293,0.588c0,0.19,0.058,0.339,0.171,0.443S41.67,5.461,41.897,5.461z"/>
	<path fill="#333333" d="M47.351,6.158c-0.543,0-0.964-0.195-1.264-0.585h-0.054c0.036,0.361,0.054,0.581,0.054,0.659v1.755h-0.91
		V1.795h0.736c0.021,0.08,0.063,0.271,0.128,0.573h0.046c0.284-0.435,0.711-0.651,1.279-0.651c0.535,0,0.951,0.194,1.25,0.582
		c0.298,0.387,0.447,0.931,0.447,1.631s-0.151,1.247-0.455,1.64S47.886,6.158,47.351,6.158z M47.13,2.461
		c-0.362,0-0.626,0.106-0.793,0.318c-0.166,0.212-0.25,0.55-0.25,1.015V3.93c0,0.522,0.083,0.9,0.248,1.134
		c0.166,0.233,0.436,0.351,0.811,0.351c0.314,0,0.558-0.129,0.729-0.388c0.17-0.258,0.256-0.626,0.256-1.104
		c0-0.48-0.085-0.844-0.254-1.091C47.706,2.585,47.458,2.461,47.13,2.461z"/>
	<path fill="#333333" d="M53.893,6.081h-0.915V3.445c0-0.33-0.066-0.577-0.199-0.74c-0.133-0.162-0.344-0.244-0.634-0.244
		c-0.382,0-0.663,0.114-0.843,0.343c-0.18,0.229-0.27,0.612-0.27,1.149v2.128h-0.91v-6.03h0.91v1.53
		c0,0.246-0.016,0.508-0.046,0.787h0.058c0.124-0.207,0.297-0.367,0.518-0.48c0.221-0.114,0.479-0.171,0.773-0.171
		c1.038,0,1.558,0.523,1.558,1.569V6.081z"/>
	<path fill="#333333" d="M54.509,1.795h0.992l0.872,2.43c0.132,0.346,0.22,0.672,0.264,0.977h0.03
		c0.023-0.143,0.066-0.314,0.128-0.518c0.062-0.203,0.391-1.166,0.984-2.889h0.984L56.931,6.65
		c-0.333,0.892-0.889,1.337-1.666,1.337c-0.202,0-0.398-0.021-0.589-0.065V7.201c0.137,0.03,0.293,0.046,0.469,0.046
		c0.439,0,0.748-0.254,0.926-0.764l0.159-0.402L54.509,1.795z"/>
</g>
</svg>
